<svg width="174" height="125" viewBox="0 0 174 125" fill="none" xmlns="http://www.w3.org/2000/svg">
<path d="M128.651 35.7865L130.377 32.0854L131.266 35.2725L132.045 40.3905C132.12 40.8728 132.172 41.3606 132.207 41.8504L132.404 44.6823C132.535 46.5496 132.503 48.4264 132.308 50.2844L132.112 52.148C131.846 54.6958 131.283 57.1856 130.438 59.5446L130.301 59.9278C129.205 62.9896 127.823 65.8963 126.184 68.5899C124.836 70.8068 123.312 72.8648 121.634 74.7341L119.14 77.5174C118.041 78.7436 116.852 79.8483 115.589 80.8203L113.348 82.5419C111.964 83.6055 110.494 84.499 108.962 85.2131L104.786 87.1552C103.776 87.6244 102.736 88.002 101.677 88.2824L96.5062 89.6563C95.6803 89.875 94.8489 90.0563 94.0118 90.2002L91.0338 90.7086C89.7113 90.9348 88.3738 91.004 87.0383 90.9143L81.8783 90.5722C81.324 90.5348 80.7716 90.4525 80.2247 90.3236L73.9878 88.8562C73.426 88.7235 72.8698 88.5478 72.3267 88.3272L65.8052 85.6916C65.0016 85.3663 64.2166 84.9757 63.4577 84.5233L60.0239 82.4709C59.5199 82.1699 59.0418 81.8054 58.601 81.383L52.5965 75.6425V34.2257L50.8183 32.6144H48.1509V31.106H57.3659L69.0399 56.5202L80.5949 31.5527L89.8749 31.106L89.927 32.6144L86.8169 32.3939L85.4832 34.207V60.2362L86.8169 62.027L90.3716 62.0943V63.5186L75.7046 63.4233V62.3616H78.8147L80.593 60.2362V36.8632L68.1489 63.9542L54.8156 36.3305L55.2602 74.5771L58.8056 77.966C59.4045 78.538 60.037 79.0576 60.6992 79.5193L64.0753 81.8727C64.7151 82.3195 65.3885 82.6989 66.0842 83.0055L72.2709 85.7308C73.0763 86.086 73.9078 86.3533 74.7523 86.5327L80.1243 87.6655C80.7325 87.7945 81.3426 87.8917 81.9583 87.9571L87.1406 88.5141C88.0148 88.6076 88.8947 88.6039 89.7671 88.5011L92.2652 88.2076C94.2574 87.9739 96.2328 87.5664 98.1729 86.9851L101.127 86.1028C101.953 85.8561 102.762 85.5383 103.549 85.1514L106.569 83.6635C108.8 82.5662 110.941 81.2297 112.97 79.6708L114.581 78.4333C115.621 77.6352 116.601 76.7286 117.509 75.7267L119.94 73.0443C121.259 71.59 122.447 69.9787 123.491 68.2329L124.387 66.7319C125.702 64.5299 126.817 62.1653 127.71 59.6773C128.589 57.2268 129.175 54.6397 129.452 51.9929L129.501 51.5312C129.782 48.8376 129.873 46.1197 129.774 43.4074L129.765 43.1514C129.724 42.0354 129.612 40.9251 129.434 39.8297L129.036 37.3904L128.643 35.7791L128.651 35.7865Z" fill="white"/>
<path d="M102.989 33.2837L102.224 34.3753V34.7865C102.224 35.5922 102.386 36.3885 102.697 37.1119L111.813 58.382L126.675 24.5524L125.736 23.1785C124.127 20.8252 122.334 18.6456 120.379 16.668C119.462 15.7408 118.508 14.866 117.516 14.0454L116.761 13.4192C114.745 11.7518 112.585 10.3237 110.316 9.15921L107.609 7.77036C106.577 7.23949 105.522 6.76471 104.451 6.34413L102.317 5.50857C101.296 5.10856 100.256 4.77396 99.2015 4.50853L98.5244 4.33656C97.1554 3.99075 95.7696 3.72906 94.3764 3.55148L92.1536 3.27109L90.0275 3.05052C87.933 2.83369 85.8255 2.82434 83.7292 3.02435L82.3843 3.15146C81.5454 3.23184 80.7102 3.33838 79.8769 3.47484L76.4803 4.02627C75.1057 4.25057 73.7478 4.59825 72.4216 5.07117L68.9432 6.30861C67.4793 6.83013 66.0451 7.45819 64.65 8.19094L62.3695 9.38912C61.1326 10.0396 59.9458 10.8097 58.8242 11.6939L56.3819 13.6192C54.9812 14.7221 53.6717 15.967 52.4663 17.339L50.4425 19.6419L49.7227 20.4606C48.6066 21.7299 47.604 23.1224 46.7279 24.6178L45.2417 27.1544C44.5553 28.3264 43.9563 29.5639 43.4523 30.8536L42.6487 32.9098C42.4106 33.521 42.1967 34.1472 42.0107 34.7828C41.2424 37.4091 40.7904 40.1419 40.6695 42.9065L40.4426 48.0544C40.3961 49.1161 40.4389 50.1797 40.5709 51.2321C40.7588 52.7219 41.0118 54.2005 41.3336 55.6622L41.6442 57.0716C41.8935 58.2044 42.3548 59.2493 42.7361 60.3335C42.7584 60.397 42.7715 60.4718 42.7715 60.5634V67.6572L42.1985 66.6795C41.3038 65.1524 40.5337 63.5336 39.8976 61.8438C39.5758 60.9914 39.3079 60.1129 39.0922 59.2175L38.6588 57.4081C38.2049 55.5127 37.8812 53.5799 37.6896 51.6265L37.6208 50.9125C37.539 50.0713 37.498 49.2264 37.498 48.3797V44.4729C37.5445 39.5419 38.6904 35.4651 38.9396 34.3641C39.2577 33.2799 39.6409 32.2238 40.0892 31.2032L40.8053 29.5713C41.475 28.046 42.2636 26.5936 43.1621 25.2328L46.1271 20.7336L46.6033 20.0831C47.8812 18.3372 49.2725 16.7035 50.7643 15.1931L51.447 14.5015C52.3733 13.5631 53.3443 12.6827 54.3525 11.8621L57.7435 9.105C58.9451 8.12925 60.2341 7.30305 61.5902 6.64134L64.7337 5.10856C65.7531 4.61134 66.7929 4.17394 67.8494 3.79822L71.166 2.61873C73.0075 1.96449 74.8918 1.47849 76.8003 1.16819L78.8743 0.831729C80.0536 0.639197 81.2385 0.491527 82.4252 0.388719L85.1131 0.153194C86.2887 0.0503857 87.468 -0.00195312 88.6454 -0.00195312H89.17C91.4709 -0.00195312 93.7644 0.256002 96.0207 0.770044L97.4233 1.08968L98.7681 1.42989C100.745 1.93084 102.693 2.57573 104.598 3.36455L106.123 3.99636C106.714 4.24123 107.3 4.50853 107.877 4.79452L111.701 6.69741C113.684 7.68437 115.58 8.88817 117.362 10.292L118.844 11.4602C120.223 12.5463 121.514 13.7725 122.702 15.124L124.754 17.4586L129.549 23.4608L110.851 66.0197L95.5092 34.3734L93.7756 33.2818H91.1956L91.1566 31.6443H105.943L106.06 33.2818H103.234" fill="white"/>
<path d="M20.8275 104.076H25.8535V104.35C25.1579 104.35 24.6482 104.41 24.3245 104.53C23.999 104.65 23.7553 104.9 23.5935 105.279C23.4317 105.659 23.3498 106.244 23.3498 107.033V121.738C23.3498 122.527 23.4317 123.112 23.5935 123.492C23.7553 123.871 23.999 124.121 24.3245 124.241C24.65 124.361 25.1597 124.421 25.8535 124.421V124.695H18.322C17.6505 124.695 17.0329 124.647 16.473 124.551C15.9131 124.456 15.3774 124.284 14.8677 124.039C14.3581 123.794 13.8949 123.521 13.4801 123.224C13.0653 122.927 12.6431 122.512 12.2115 121.983C11.78 121.454 11.3875 120.923 11.0341 120.389C10.6806 119.854 10.2863 119.166 9.84917 118.325C9.41205 117.484 9.00655 116.661 8.6308 115.858C8.25506 115.054 7.80492 114.061 7.27851 112.878C7.13342 112.551 6.92881 112.087 6.66467 111.485C6.40054 110.883 6.2108 110.454 6.09362 110.194C5.97643 109.934 5.81646 109.582 5.61371 109.139C5.41282 108.696 5.25285 108.36 5.1338 108.13C5.01662 107.898 4.88083 107.637 4.73016 107.343C4.57949 107.05 4.43812 106.799 4.30978 106.594C4.18143 106.386 4.04936 106.197 3.91543 106.023V121.738C3.91543 122.306 4.00844 122.776 4.19259 123.146C4.37674 123.516 4.65203 123.791 5.01662 123.968C5.3812 124.146 5.75322 124.267 6.13454 124.329C6.51586 124.392 6.98089 124.422 7.52962 124.422V124.697H-9.30179e-05V124.422C0.548639 124.422 1.01367 124.391 1.39499 124.329C1.77631 124.267 2.14647 124.146 2.50361 123.968C2.86261 123.791 3.13419 123.516 3.31834 123.146C3.50249 122.776 3.59549 122.306 3.59549 121.738V105.633C3.15837 105.152 2.6673 104.818 2.12415 104.629C1.581 104.442 0.872297 104.349 -0.00195312 104.349V104.074C0.513297 104.074 0.939261 104.081 1.27594 104.096C1.61262 104.111 1.99208 104.145 2.41991 104.197C2.84587 104.25 3.20487 104.33 3.49505 104.435C3.78709 104.541 4.11632 104.687 4.48649 104.874C4.85665 105.061 5.18403 105.294 5.47048 105.573C5.75694 105.851 6.06944 106.188 6.4117 106.582C6.75396 106.977 7.08133 107.438 7.39569 107.967C7.71005 108.496 8.03929 109.102 8.38713 109.786C8.73497 110.468 9.09397 111.239 9.46227 112.095C10.0445 113.431 10.4816 114.424 10.7736 115.067C11.0657 115.712 11.5158 116.633 12.1259 117.83C12.7361 119.028 13.3053 120.026 13.8317 120.824L20.8238 104.07L20.8275 104.076ZM20.8275 121.74V104.842L14.0363 121.119C15.5485 123.323 16.9827 124.424 18.3387 124.424C19.0214 124.424 19.5273 124.364 19.851 124.245C20.1765 124.125 20.4202 123.875 20.582 123.495C20.7438 123.116 20.8257 122.531 20.8257 121.742L20.8275 121.74Z" fill="white"/>
<path d="M33.199 105.195C34.9252 104.248 36.802 103.775 38.8296 103.775C40.8571 103.775 42.7358 104.249 44.4601 105.195C46.1863 106.143 47.5497 107.433 48.5542 109.063C49.5568 110.693 50.059 112.47 50.059 114.396C50.059 116.321 49.5568 118.095 48.5542 119.721C47.5516 121.347 46.1863 122.633 44.4601 123.581C42.7339 124.529 40.8571 125.002 38.8296 125.002C36.802 125.002 34.9233 124.529 33.199 123.581C31.4728 122.633 30.1094 121.347 29.1049 119.721C28.1023 118.095 27.6001 116.321 27.6001 114.396C27.6001 112.47 28.1023 110.695 29.1049 109.063C30.1075 107.433 31.4728 106.143 33.199 105.195ZM38.8314 124.727C40.4125 124.727 41.869 124.267 43.2027 123.349C44.5364 122.43 45.5929 121.177 46.3723 119.59C47.1517 118.003 47.5404 116.271 47.5404 114.396C47.5404 112.521 47.1517 110.788 46.3723 109.201C45.5929 107.614 44.5364 106.358 43.2027 105.435C41.869 104.511 40.4125 104.049 38.8314 104.049C37.2503 104.049 35.792 104.511 34.4527 105.435C33.1135 106.358 32.0551 107.614 31.2757 109.201C30.4963 110.788 30.1075 112.521 30.1075 114.396C30.1075 115.801 30.3363 117.14 30.7976 118.415C31.2571 119.689 31.8783 120.789 32.6633 121.712C33.4483 122.635 34.3783 123.37 35.4535 123.912C36.5286 124.456 37.6558 124.727 38.8314 124.727Z" fill="white"/>
<path d="M60.9015 103.773C64.2738 103.773 66.9636 104.713 68.9706 106.594C70.9758 108.474 71.9803 111.074 71.9803 114.394C71.9803 116.472 71.5859 118.306 70.7954 119.899C70.0048 121.491 68.8479 122.74 67.3244 123.643C65.801 124.548 64.0134 125 61.9617 125C60.8643 125 59.3985 124.949 57.5663 124.849C55.7341 124.748 54.6441 124.697 54.2962 124.697H51.7739V124.422C52.4677 124.422 52.9811 124.363 53.3122 124.243C53.6433 124.123 53.8889 123.873 54.0526 123.493C54.2144 123.114 54.2962 122.529 54.2962 121.74V107.035C54.2962 106.246 54.2144 105.661 54.0526 105.281C53.8907 104.902 53.6433 104.651 53.3122 104.532C52.9811 104.412 52.4696 104.352 51.7739 104.352V104.078H54.2962C54.3855 104.078 55.2709 104.027 56.9525 103.926C58.634 103.825 59.951 103.775 60.9033 103.775L60.9015 103.773ZM61.9617 124.727C64.3036 124.727 66.1414 123.781 67.4751 121.891C68.8088 120.002 69.4747 117.502 69.4747 114.394C69.4747 112.749 69.2571 111.267 68.82 109.949C68.3828 108.631 67.7783 107.543 67.0045 106.687C66.2307 105.831 65.3267 105.177 64.2906 104.724C63.2545 104.272 62.1254 104.046 60.9033 104.046C60.0737 104.046 58.7065 104.104 56.8018 104.22V124.523C59.3129 124.658 61.0317 124.725 61.9617 124.725V124.727Z" fill="white"/>
<path d="M89.0937 121.74C89.2834 122.327 89.4806 122.8 89.6815 123.161C89.8824 123.521 90.1186 123.792 90.3883 123.976C90.658 124.159 90.9296 124.278 91.203 124.336C91.4783 124.394 91.828 124.422 92.254 124.422V124.697H84.7224V124.422C85.2488 124.422 85.6581 124.394 85.9501 124.336C86.2421 124.278 86.4765 124.157 86.6569 123.968C86.8355 123.781 86.9155 123.508 86.8932 123.153C86.8709 122.798 86.7648 122.321 86.5732 121.725L83.7329 113.039C83.6659 113.568 83.4501 114.054 83.0855 114.497C82.721 114.94 82.2876 115.3 81.7835 115.579C81.2794 115.857 80.7251 116.149 80.1187 116.452C79.5141 116.755 78.9412 117.037 78.4036 117.297C77.8661 117.557 77.3806 117.884 76.949 118.278C76.5175 118.673 76.2236 119.106 76.0674 119.577C75.9892 119.798 75.9278 119.981 75.8832 120.125C75.7604 120.501 75.6935 120.871 75.6823 121.235C75.6712 121.602 75.753 121.981 75.926 122.376C76.099 122.77 76.3743 123.114 76.75 123.407C77.1258 123.701 77.6745 123.944 78.3981 124.136C79.1217 124.329 79.9866 124.424 80.9948 124.424V124.699H71.2627V124.424C72.2486 124.424 73.0391 124.247 73.6325 123.89C74.2258 123.534 74.6965 122.817 75.0443 121.74L80.5074 105.001C79.9475 104.567 79.1123 104.352 78.0019 104.352V104.078H83.3311L89.0974 121.74H89.0937ZM76.4524 118.405C76.7779 118.05 77.2169 117.702 77.7712 117.366C78.3255 117.03 78.8743 116.747 79.4193 116.521C79.9624 116.295 80.5093 116.026 81.058 115.714C81.6068 115.401 82.0755 115.084 82.4624 114.76C82.8493 114.439 83.1265 114.016 83.2939 113.499C83.4613 112.981 83.4669 112.392 83.3106 111.738L81.7816 107.033C81.5342 106.253 81.1938 105.648 80.7567 105.214L76.4543 118.403L76.4524 118.405Z" fill="white"/>
<path d="M117.888 104.35V104.076H125.42V104.35C124.434 104.35 123.63 104.53 123.007 104.891C122.386 105.251 121.861 105.965 121.435 107.033L115.703 121.521C116.822 123.454 117.899 124.422 118.93 124.422V124.697C118.47 124.697 118.041 124.665 117.644 124.604C117.246 124.542 116.863 124.43 116.493 124.271C116.123 124.112 115.784 123.936 115.476 123.744C115.167 123.551 114.86 123.288 114.551 122.949C114.242 122.613 113.96 122.28 113.703 121.953C113.444 121.626 113.167 121.198 112.871 120.669C112.574 120.14 112.308 119.635 112.073 119.153C111.837 118.673 111.564 118.063 111.249 117.327C110.935 116.59 110.647 115.9 110.384 115.256C110.12 114.611 109.804 113.818 109.434 112.874C109.345 112.633 109.205 112.272 109.014 111.792C108.779 111.196 108.599 110.743 108.476 110.435C108.353 110.126 108.177 109.696 107.946 109.143C107.715 108.59 107.524 108.16 107.366 107.851C107.209 107.543 107.01 107.175 106.768 106.747C106.527 106.319 106.303 105.984 106.097 105.743C105.889 105.502 105.656 105.263 105.399 105.021C105.141 104.78 104.879 104.608 104.609 104.502C104.339 104.395 104.06 104.343 103.768 104.343V104.068C104.709 104.068 105.533 104.184 106.24 104.414C106.947 104.644 107.512 104.891 107.938 105.15C108.364 105.41 108.798 105.907 109.241 106.644C109.683 107.38 109.999 107.969 110.191 108.412C110.381 108.855 110.701 109.653 111.149 110.807C111.374 111.366 111.541 111.794 111.653 112.091C111.754 112.36 112.034 113.087 112.494 114.27C112.953 115.454 113.296 116.317 113.519 116.861C113.744 117.405 114.049 118.112 114.436 118.983C114.823 119.854 115.184 120.587 115.52 121.183L121.117 107.027C121.262 106.661 121.346 106.337 121.37 106.053C121.393 105.769 121.354 105.53 121.253 105.332C121.153 105.135 121.009 104.971 120.825 104.842C120.641 104.713 120.394 104.61 120.085 104.539C119.776 104.468 119.449 104.416 119.101 104.388C118.753 104.36 118.349 104.345 117.89 104.345L117.888 104.35Z" fill="white"/>
<path d="M126.277 104.076H133.808V104.35C133.113 104.35 132.603 104.41 132.279 104.53C131.954 104.65 131.71 104.9 131.548 105.279C131.387 105.659 131.305 106.244 131.305 107.033V121.738C131.305 122.527 131.387 123.112 131.548 123.492C131.71 123.871 131.954 124.121 132.279 124.241C132.605 124.361 133.115 124.421 133.808 124.421V124.695H126.277V124.421C126.971 124.421 127.484 124.361 127.815 124.241C128.146 124.121 128.392 123.871 128.555 123.492C128.717 123.112 128.799 122.527 128.799 121.738V107.033C128.799 106.244 128.717 105.659 128.555 105.279C128.394 104.9 128.146 104.65 127.815 104.53C127.484 104.41 126.973 104.35 126.277 104.35V104.076Z" fill="white"/>
<path d="M148.853 104.35V104.076H156.384V104.35C155.399 104.35 154.595 104.53 153.972 104.891C153.351 105.251 152.826 105.965 152.4 107.033L146.667 121.521C147.787 123.454 148.864 124.422 149.895 124.422V124.697C149.435 124.697 149.005 124.665 148.609 124.604C148.211 124.542 147.828 124.43 147.458 124.271C147.088 124.112 146.749 123.936 146.44 123.744C146.132 123.551 145.825 123.288 145.516 122.949C145.207 122.611 144.924 122.28 144.668 121.953C144.409 121.626 144.132 121.198 143.836 120.669C143.539 120.14 143.273 119.635 143.038 119.153C142.802 118.673 142.529 118.063 142.214 117.327C141.9 116.59 141.611 115.9 141.349 115.256C141.085 114.611 140.769 113.818 140.399 112.874C140.309 112.633 140.168 112.272 139.978 111.792C139.742 111.196 139.564 110.743 139.441 110.435C139.318 110.126 139.141 109.696 138.911 109.143C138.68 108.59 138.488 108.16 138.33 107.851C138.174 107.543 137.975 107.175 137.733 106.747C137.491 106.319 137.268 105.984 137.06 105.743C136.851 105.502 136.619 105.263 136.362 105.021C136.104 104.78 135.841 104.608 135.572 104.502C135.302 104.395 135.023 104.343 134.731 104.343V104.068C135.672 104.068 136.496 104.184 137.203 104.414C137.908 104.646 138.475 104.891 138.901 105.15C139.327 105.41 139.761 105.907 140.203 106.644C140.646 107.38 140.962 107.969 141.154 108.412C141.345 108.855 141.664 109.653 142.112 110.807C142.337 111.366 142.504 111.794 142.616 112.091C142.716 112.36 142.997 113.087 143.457 114.27C143.916 115.454 144.258 116.317 144.482 116.861C144.707 117.405 145.012 118.112 145.399 118.983C145.786 119.854 146.146 120.587 146.483 121.183L152.08 107.027C152.225 106.661 152.309 106.337 152.333 106.053C152.355 105.769 152.316 105.53 152.216 105.332C152.116 105.135 151.972 104.971 151.788 104.842C151.604 104.713 151.357 104.61 151.048 104.539C150.739 104.466 150.412 104.416 150.064 104.388C149.716 104.36 149.312 104.345 148.853 104.345V104.35Z" fill="white"/>
<path d="M170.839 121.74C171.029 122.327 171.226 122.8 171.427 123.161C171.628 123.521 171.864 123.792 172.132 123.976C172.402 124.159 172.673 124.278 172.947 124.336C173.222 124.394 173.572 124.422 173.998 124.422V124.697H166.466V124.422C166.993 124.422 167.402 124.394 167.694 124.336C167.986 124.278 168.22 124.157 168.401 123.968C168.579 123.781 168.658 123.508 168.635 123.153C168.613 122.798 168.507 122.321 168.315 121.725L165.475 113.039C165.408 113.568 165.192 114.054 164.828 114.497C164.463 114.94 164.03 115.3 163.525 115.579C163.021 115.857 162.467 116.149 161.861 116.452C161.256 116.755 160.683 117.037 160.146 117.297C159.608 117.557 159.123 117.884 158.691 118.278C158.26 118.673 157.966 119.106 157.807 119.577C157.729 119.798 157.668 119.981 157.623 120.125C157.501 120.501 157.432 120.871 157.422 121.235C157.411 121.602 157.493 121.981 157.666 122.376C157.839 122.77 158.114 123.114 158.49 123.407C158.866 123.701 159.415 123.944 160.138 124.136C160.862 124.329 161.727 124.424 162.735 124.424V124.699H153.001V124.424C153.987 124.424 154.777 124.247 155.371 123.89C155.964 123.534 156.435 122.817 156.783 121.74L162.246 105.001C161.686 104.567 160.851 104.352 159.742 104.352V104.078H165.071L170.838 121.74H170.839ZM158.198 118.405C158.524 118.05 158.963 117.702 159.517 117.366C160.071 117.03 160.62 116.747 161.165 116.521C161.708 116.295 162.255 116.026 162.804 115.714C163.352 115.401 163.821 115.084 164.208 114.76C164.595 114.439 164.872 114.016 165.04 113.499C165.207 112.979 165.213 112.392 165.056 111.738L163.527 107.033C163.28 106.253 162.94 105.648 162.502 105.214L158.2 118.403L158.198 118.405Z" fill="white"/>
</svg>
