<?xml version="1.0" encoding="UTF-8"?>
<svg id="Camada_1" xmlns="http://www.w3.org/2000/svg" version="1.1" viewBox="0 0 1080 1350">
  <!-- Generator: Adobe Illustrator 29.2.1, SVG Export Plug-In . SVG Version: 2.1.0 Build 116)  -->
  <path d="M733.1,545.5l9.3-19.8,4.8,17.1,4.2,27.4c.4,2.6.7,5.2.9,7.8l1.1,15.2c.7,10,.5,20-.5,30l-1,10c-1.4,13.6-4.5,26.9-9,39.6l-.7,2.1c-5.9,16.4-13.3,31.9-22.1,46.3h0c-7.3,11.9-15.4,22.9-24.5,32.9l-13.4,14.9c-5.9,6.6-12.3,12.5-19.1,17.7l-12,9.2c-7.4,5.7-15.3,10.5-23.6,14.3l-22.5,10.4c-5.4,2.5-11,4.5-16.7,6l-27.8,7.3c-4.4,1.2-8.9,2.1-13.4,2.9l-16,2.7c-7.1,1.2-14.3,1.6-21.5,1.1l-27.7-1.8c-3-.2-6-.6-8.9-1.3l-33.5-7.9c-3-.7-6-1.7-8.9-2.8l-35.1-14.1c-4.3-1.7-8.5-3.8-12.6-6.3l-18.5-11c-2.7-1.6-5.3-3.6-7.6-5.8l-32.3-30.7v-221.6l-9.6-8.6h-14.3v-8.1h49.5l62.8,136,62.1-133.6,49.9-2.4.3,8.1-16.7-1.2-7.2,9.7v139.3l7.2,9.6,19.1.4v7.6l-78.8-.5v-5.7h16.7l9.6-11.4v-125l-66.9,144.9-71.7-147.8,2.4,204.6,19.1,18.1c3.2,3.1,6.6,5.8,10.2,8.3l18.1,12.6c3.4,2.4,7.1,4.4,10.8,6.1l33.3,14.6c4.3,1.9,8.8,3.3,13.3,4.3l28.9,6.1c3.3.7,6.6,1.2,9.9,1.6l27.9,3c4.7.5,9.4.5,14.1,0l13.4-1.6c10.7-1.2,21.3-3.4,31.8-6.5l15.9-4.7c4.4-1.3,8.8-3,13-5.1l16.2-8c12-5.9,23.5-13,34.4-21.4l8.7-6.6c5.6-4.3,10.9-9.1,15.7-14.5l13.1-14.3c7.1-7.8,13.5-16.4,19.1-25.7l4.8-8c7.1-11.8,13.1-24.4,17.9-37.7h0c4.7-13.1,7.9-27,9.4-41.1l.3-2.5c1.5-14.4,2-29,1.5-43.5v-1.4c-.3-6-.9-11.9-1.8-17.8l-2.1-13.1-2.1-8.6-.6-.3Z"/>
  <path d="M595.1,532.1l-4.1,5.8v2.2c0,4.3.9,8.6,2.5,12.4l49,113.8,79.9-181-5-7.3c-8.6-12.6-18.3-24.2-28.8-34.8h0c-4.9-5-10.1-9.6-15.4-14l-4.1-3.3c-10.8-8.9-22.4-16.6-34.6-22.8l-14.6-7.4c-5.6-2.8-11.2-5.4-17-7.6l-11.5-4.5c-5.5-2.1-11.1-3.9-16.7-5.4l-3.6-.9c-7.4-1.9-14.8-3.3-22.3-4.2l-11.9-1.5-11.4-1.2c-11.3-1.2-22.6-1.2-33.9-.1l-7.2.7c-4.5.4-9,1-13.5,1.7l-18.3,3c-7.4,1.2-14.7,3.1-21.8,5.6l-18.7,6.6c-7.9,2.8-15.6,6.1-23.1,10.1l-12.3,6.4c-6.7,3.5-13,7.6-19.1,12.3l-13.1,10.3c-7.5,5.9-14.6,12.6-21.1,19.9l-10.9,12.3-3.9,4.4c-6,6.8-11.4,14.2-16.1,22.2l-8,13.6c-3.7,6.3-6.9,12.9-9.6,19.8l-4.3,11c-1.3,3.3-2.4,6.6-3.4,10h0c-4.1,14-6.6,28.7-7.2,43.5l-1.2,27.5c-.3,5.7,0,11.4.7,17h0c1,8,2.4,15.9,4.1,23.7l1.7,7.5c1.3,6.1,3.8,11.6,5.9,17.4s.2.7.2,1.2v37.9l-3.1-5.2c-4.8-8.2-9-16.8-12.4-25.9h0c-1.7-4.6-3.2-9.3-4.3-14l-2.3-9.7c-2.4-10.1-4.2-20.5-5.2-30.9l-.4-3.8c-.4-4.5-.7-9-.7-13.6v-20.9c.2-26.4,6.4-48.2,7.7-54.1h0c1.7-5.8,3.8-11.4,6.2-16.9l3.9-8.7c3.6-8.2,7.8-15.9,12.7-23.2l15.9-24.1,2.6-3.5c6.9-9.3,14.4-18.1,22.4-26.2l3.7-3.7c5-5,10.2-9.7,15.6-14.1l18.2-14.7c6.5-5.2,13.4-9.6,20.7-13.2l16.9-8.2c5.5-2.7,11.1-5,16.8-7l17.8-6.3c9.9-3.5,20-6.1,30.3-7.8l11.2-1.8c6.3-1,12.7-1.8,19.1-2.4l14.4-1.3c6.3-.6,12.7-.8,19-.8h2.8c12.4,0,24.7,1.4,36.8,4.1l7.5,1.7,7.2,1.8c10.6,2.7,21.1,6.1,31.3,10.4l8.2,3.4c3.2,1.3,6.3,2.7,9.4,4.3l20.6,10.2c10.7,5.3,20.8,11.7,30.4,19.2l8,6.2c7.4,5.8,14.4,12.4,20.7,19.6l11,12.5,25.8,32.1-100.5,227.7-82.5-169.3-9.3-5.8h-13.9l-.2-8.8h79.5l.6,8.8h-15.2"/>
</svg>